<?xml version="1.0" encoding="UTF-8" standalone="no"?>
<!-- Created with Inkscape (http://www.inkscape.org/) -->

<svg
   xmlns:dc="http://purl.org/dc/elements/1.1/"
   xmlns:cc="http://creativecommons.org/ns#"
   xmlns:rdf="http://www.w3.org/1999/02/22-rdf-syntax-ns#"
   xmlns:svg="http://www.w3.org/2000/svg"
   xmlns="http://www.w3.org/2000/svg"
   version="1.1"
   width="55"
   height="55"
   id="svg2">
  <metadata
     id="metadata33">
    <rdf:RDF>
      <cc:Work
         rdf:about="">
        <dc:format>image/svg+xml</dc:format>
        <dc:type
           rdf:resource="http://purl.org/dc/dcmitype/StillImage" />
        <dc:title></dc:title>
      </cc:Work>
    </rdf:RDF>
  </metadata>
  <defs
     id="defs4">
    <mask
       id="Mask">
      <rect
         width="55"
         height="55"
         x="0"
         y="0"
         id="rect7" />
      <line
         x1="11"
         y1="19"
         x2="16"
         y2="19"
         id="line9" />
      <line
         x1="18"
         y1="19"
         x2="22"
         y2="19"
         id="line11" />
      <line
         x1="11"
         y1="24"
         x2="13"
         y2="24"
         id="line13" />
      <line
         x1="15"
         y1="24"
         x2="18"
         y2="24"
         id="line15" />
      <line
         x1="11"
         y1="29"
         x2="14"
         y2="29"
         id="line17" />
      <path
         d="m 17,35 2,-6 19,-19 4,3 -19,19 z"
         id="path19" />
    </mask>
  </defs>
  <path
     d="m 46,17 7,7 -14,0 z"
     id="path27"
     style="fill:#ffffff;fill-opacity:1" />
  <path
     d="m 46,38 7,-7 -14,0 z"
     id="path29"
     style="fill:#ffffff;fill-opacity:1" />
  <rect
     width="25"
     height="27"
     x="8"
     y="14"
     id="rect3848"
     style="fill:#000000;fill-opacity:1;fill-rule:nonzero;stroke:none" />
  <g
     transform="matrix(0.45454545,0,0,0.45454545,-75.741525,27.902542)"
     id="layer3"
     style="display:none">
    <path
       d="m 36.539789,13.013087 c 9.161862,4.992537 12.541772,16.466949 7.549234,25.628815 L 27.5,29.602112 z"
       id="path4311"
       style="fill:#808080;fill-opacity:1;stroke:none" />
    <path
       d="M 27.571522,30.159444 39.546676,36.73611"
       id="path4283"
       style="fill:none;stroke:#000000;stroke-width:3.5;stroke-linecap:round;stroke-linejoin:round;stroke-miterlimit:4;stroke-opacity:1;stroke-dasharray:none" />
  </g>
  <g
     transform="translate(-1.088983,0.47302)"
     id="g4239">
    <g
       id="g4217">
      <g
         transform="matrix(0.45454545,0,0,0.45454545,9.0889835,14.618644)"
         id="layer2"
         style="display:inline">
        <path
           d="m 45.925926,24.25926 a 21.296297,21.296297 0 1 1 -42.5925939,0 21.296297,21.296297 0 1 1 42.5925939,0 z"
           transform="matrix(0.89950544,0,0,0.89950544,5.3455146,7.678664)"
           id="path3791"
           style="fill:#ffffff;fill-opacity:1;stroke:none" />
      </g>
      <path
         d="m 19.485974,17.318891 4.373907,0"
         id="path4076"
         style="fill:none;stroke:#e0e0e0;stroke-width:1.59090912;stroke-linecap:butt;stroke-linejoin:miter;stroke-miterlimit:4;stroke-opacity:1;stroke-dasharray:none" />
      <path
         d="m 30.296317,28.027735 a 8.707334,8.707334 0 0 1 -17.414668,0 8.707334,8.707334 0 1 1 17.414668,0 z"
         id="path4380"
         style="fill:none;stroke:#e0e0e0;stroke-width:1.59090912;stroke-miterlimit:4;stroke-opacity:1;stroke-dasharray:none;display:inline" />
    </g>
    <g
       id="g4233">
      <g
         transform="matrix(0.45454545,0,0,0.45454545,9.2851457,14.618644)"
         id="layer1"
         style="display:inline">
        <path
           d="m 27.5,29.5 0,-14"
           id="path3897"
           style="fill:none;stroke:#000000;stroke-width:3.5;stroke-linecap:round;stroke-linejoin:round;stroke-miterlimit:4;stroke-opacity:1;stroke-dasharray:none" />
      </g>
      <g
         transform="matrix(-0.19652953,0.40986304,-0.2574802,-0.12346188,34.886546,20.611923)"
         id="layer1-3"
         style="stroke-width:4.16352701;stroke-miterlimit:4;stroke-dasharray:none;display:inline">
        <path
           d="m 27.5,29.5 0,-14"
           id="path3897-7"
           style="fill:none;stroke:#000000;stroke-width:4.16352701;stroke-linecap:round;stroke-linejoin:round;stroke-miterlimit:4;stroke-opacity:1;stroke-dasharray:none" />
      </g>
    </g>
  </g>
</svg>
