<?xml version="1.0" encoding="UTF-8" standalone="no"?>
<!-- Created with Inkscape (http://www.inkscape.org/) -->

<svg
   xmlns:dc="http://purl.org/dc/elements/1.1/"
   xmlns:cc="http://creativecommons.org/ns#"
   xmlns:rdf="http://www.w3.org/1999/02/22-rdf-syntax-ns#"
   xmlns:svg="http://www.w3.org/2000/svg"
   xmlns="http://www.w3.org/2000/svg"
   version="1.1"
   width="55.125"
   height="55"
   viewBox="0 0 55.125 55"
   id="svg2"
   xml:space="preserve"><metadata
     id="metadata11"><rdf:RDF><cc:Work
         rdf:about=""><dc:format>image/svg+xml</dc:format><dc:type
           rdf:resource="http://purl.org/dc/dcmitype/StillImage" /><dc:title></dc:title></cc:Work></rdf:RDF></metadata><defs
     id="defs9" /><g
     id="edit-delete"
     style="fill:#000000;fill-opacity:1;display:block"><path
       d="M 43.467,11.644 C 34.678,2.854 20.432,2.858 11.649,11.642 2.858,20.433 2.857,34.675 11.647,43.465 c 8.79,8.789 23.031,8.788 31.822,-0.003 8.783,-8.784 8.788,-23.029 -0.002,-31.818 z M 16.192,30.623 c -0.886,-0.001 -1.689,-0.359 -2.271,-0.94 -0.582,-0.583 -0.942,-1.388 -0.942,-2.276 0,-1.773 1.439,-3.213 3.217,-3.211 l 22.716,0 c 1.775,-0.005 3.212,1.438 3.213,3.213 0.002,1.775 -1.441,3.214 -3.215,3.215 L 16.192,30.623 z"
       id="path5"
       style="fill:#000000;fill-opacity:1;display:inline" /></g></svg>