<?xml version="1.0" encoding="UTF-8" standalone="no"?>
<!-- Created with Inkscape (http://www.inkscape.org/) -->

<svg
   xmlns:dc="http://purl.org/dc/elements/1.1/"
   xmlns:cc="http://creativecommons.org/ns#"
   xmlns:rdf="http://www.w3.org/1999/02/22-rdf-syntax-ns#"
   xmlns:svg="http://www.w3.org/2000/svg"
   xmlns="http://www.w3.org/2000/svg"
   version="1.1"
   width="55.125"
   height="55"
   viewBox="0 0 55.125 55"
   id="svg2"
   xml:space="preserve"><metadata
     id="metadata13"><rdf:RDF><cc:Work
         rdf:about=""><dc:format>image/svg+xml</dc:format><dc:type
           rdf:resource="http://purl.org/dc/dcmitype/StillImage" /><dc:title></dc:title></cc:Work></rdf:RDF></metadata><defs
     id="defs11" /><g
     id="go-down"
     style="fill:#000000;display:block"><g
       id="g5"
       style="fill:#000000;display:inline"><path
         d="M 27.5,50 C 39.927,50 50,39.927 50,27.5 50,15.072 39.927,5 27.5,5 15.073,5 5,15.072 5,27.5 5,39.927 15.073,50 27.5,50 z M 17.093,22.725 c 0.626,-0.624 1.447,-0.939 2.271,-0.939 0.822,0 1.645,0.315 2.271,0.939 l 5.84,5.833 5.657,-5.802 c 0.63,-0.645 1.464,-0.967 2.3,-0.967 0.808,0 1.62,0.305 2.246,0.914 1.266,1.238 1.295,3.271 0.056,4.546 l -7.929,8.126 c -0.002,0 -0.002,0 -0.003,0 -0.01,0.011 -0.015,0.021 -0.022,0.028 -0.116,0.115 -0.245,0.208 -0.371,0.302 -0.039,0.028 -0.071,0.064 -0.111,0.093 -0.114,0.075 -0.24,0.133 -0.36,0.194 -0.068,0.035 -0.131,0.078 -0.2,0.107 -0.1,0.039 -0.203,0.064 -0.306,0.093 -0.099,0.032 -0.191,0.068 -0.292,0.09 -0.083,0.018 -0.169,0.018 -0.251,0.028 -0.122,0.015 -0.244,0.033 -0.366,0.036 -0.071,0 -0.147,-0.014 -0.219,-0.021 C 27.171,36.318 27.038,36.314 26.909,36.289 26.834,36.275 26.762,36.246 26.686,36.225 26.562,36.19 26.435,36.164 26.313,36.114 26.23,36.082 26.152,36.032 26.069,35.993 25.963,35.938 25.854,35.889 25.753,35.828 25.669,35.77 25.593,35.698 25.514,35.634 25.428,35.57 25.338,35.512 25.26,35.433 25.255,35.43 25.251,35.422 25.247,35.419 25.24,35.415 25.236,35.411 25.233,35.408 l -8.142,-8.13 c -1.254,-1.259 -1.257,-3.292 0.002,-4.553 z"
         id="path7"
         style="fill:#000000" /></g></g></svg>