<?xml version="1.0" encoding="UTF-8" standalone="no"?>
<!-- Created with Inkscape (http://www.inkscape.org/) -->

<svg
   xmlns:dc="http://purl.org/dc/elements/1.1/"
   xmlns:cc="http://creativecommons.org/ns#"
   xmlns:rdf="http://www.w3.org/1999/02/22-rdf-syntax-ns#"
   xmlns:svg="http://www.w3.org/2000/svg"
   xmlns="http://www.w3.org/2000/svg"
   version="1.1"
   width="55"
   height="55"
   id="svg2">
  <metadata
     id="metadata33">
    <rdf:RDF>
      <cc:Work
         rdf:about="">
        <dc:format>image/svg+xml</dc:format>
        <dc:type
           rdf:resource="http://purl.org/dc/dcmitype/StillImage" />
        <dc:title></dc:title>
      </cc:Work>
    </rdf:RDF>
  </metadata>
  <defs
     id="defs4">
    <mask
       id="Mask">
      <rect
         width="55"
         height="55"
         x="0"
         y="0"
         id="rect7" />
      <line
         x1="11"
         y1="19"
         x2="16"
         y2="19"
         id="line9" />
      <line
         x1="18"
         y1="19"
         x2="22"
         y2="19"
         id="line11" />
      <line
         x1="11"
         y1="24"
         x2="13"
         y2="24"
         id="line13" />
      <line
         x1="15"
         y1="24"
         x2="18"
         y2="24"
         id="line15" />
      <line
         x1="11"
         y1="29"
         x2="14"
         y2="29"
         id="line17" />
      <path
         d="m 17,35 2,-6 19,-19 4,3 -19,19 z"
         id="path19" />
    </mask>
  </defs>
  <path
     d="m 46,17 7,7 -14,0 z"
     id="path27"
     style="fill:#ffffff;fill-opacity:1" />
  <path
     d="m 46,38 7,-7 -14,0 z"
     id="path29"
     style="fill:#ffffff;fill-opacity:1" />
  <rect
     width="25"
     height="27"
     x="8"
     y="14"
     id="rect3848"
     style="fill:#000000;fill-opacity:1;fill-rule:nonzero;stroke:none" />
  <g
     transform="matrix(0.45544554,0,0,0.45544554,7.9752476,14.97502)"
     id="emblem-favorite"
     style="fill:#e0e0e0;fill-opacity:1;stroke:#ffffff;stroke-width:3.5;stroke-miterlimit:4;stroke-opacity:1;stroke-dasharray:none;display:block">
    <polygon
       points="51,22.224 39.251,33.68 42.025,49.852 27.5,42.215 12.976,49.852 15.75,33.68 4,22.224 20.237,19.865 27.5,5.149 34.76,19.865 "
       id="polygon5"
       style="fill:#e0e0e0;fill-opacity:1;stroke:#ffffff;stroke-width:3.5;stroke-miterlimit:4;stroke-opacity:1;stroke-dasharray:none" />
  </g>
</svg>
