<?xml version="1.0" ?><!DOCTYPE svg  PUBLIC '-//W3C//DTD SVG 1.1//EN'  'http://www.w3.org/Graphics/SVG/1.1/DTD/svg11.dtd' [
	<!ENTITY stroke_color "#000">
	<!ENTITY fill_color "#eee">
]><svg height="55px" viewBox="0 0 55 55" width="55px" xmlns="http://www.w3.org/2000/svg" xmlns:xlink="http://www.w3.org/1999/xlink" stroke-linecap="round" stroke-linejoin="round" stroke-width="2.5" stroke="&stroke_color;" fill="&fill_color;">
  <path
     d="m 11.56058,51.979155 c 0,0 -2.4870713,0.275749 -3.6351599,-0.113599 C 7.0645868,51.573625 5.975352,51.144643 5.7102447,50.275174 5.4568994,49.444282 6.0384853,48.777424 6.4772659,48.027733 6.6812227,47.679256 6.2746946,47.515942 6.0537569,47.260711 5.9628788,47.155727 4.7114075,47.06629 5.8238435,45.674425 5.5659641,45.425161 5.0460329,45.713056 4.9150531,44.708835 4.8519865,44.225302 5.3484032,44.138077 5.3694483,43.800045 5.3906586,43.459383 5.4808033,43.253398 5.2590258,42.993946 4.7416105,42.388633 3.3014024,42.622081 2.9802384,41.8934 2.8228193,41.536236 3.0422036,40.914377 3.211072,40.562481 3.9827103,38.954508 6.0381043,38.038174 6.4486363,36.302528 6.5905229,35.702662 6.0041557,35.737251 6.10784,34.484948 c 0.1962008,-2.369714 1.3815248,-5.465337 2.442373,-6.702326 2.03114,-2.368386 5.696772,-3.124196 8.803903,-3.407962 3.52339,-0.321783 7.973475,0.277524 10.20253,1.614916 1.852152,1.111256 2.965899,2.146654 3.826915,3.781024 1.026278,1.948068 1.485315,4.314464 1.164617,6.49285 -0.222066,1.508416 -1.21736,2.716637 -2.016608,4.015035 -0.569969,0.925929 -1.568412,1.626212 -1.874379,2.66957 -0.383936,1.309233 0.170398,4.089555 0.170398,4.089555"
     style="fill:none;stroke-width:2.5;stroke-miterlimit:4;stroke-dasharray:none" />
  <g
     transform="matrix(-0.52919844,0,0,0.52919844,54.615704,0.7955987)"
     style="fill:&fill_color;;fill-opacity:1;stroke-width:4.72412586;stroke-miterlimit:4;stroke-dasharray:none">
    <path
       d="M 13.532375,11.710368 C 12.982511,5.5402534 21.461469,2.0709806 24.529298,7.3290281 29.426726,0.5011254 39.360963,4.7729756 38.496464,9.8369399 44.641983,6.84713 52.112868,12.218465 47.838068,18.307986 c 5.544347,3.666862 3.096828,14.293064 -3.708065,12.584772 4.207968,6.103914 -3.778048,11.067413 -9.043131,7.508047 -3.313252,4.27784 -15.217504,3.510564 -16.1307,-2.82672 C 10.55512,39.786421 1.868217,34.334866 7.762381,24.879261 -3.3665566,17.002174 7.2989685,8.3567341 13.532375,11.710368 z"
       style="fill:&fill_color;;fill-opacity:1;stroke-width:4.72412586;stroke-miterlimit:4;stroke-dasharray:none" />
    <path
       d="m 40.444105,43.742967 a 2.8130016,2.4760497 0 1 1 -5.626002,0 2.8130016,2.4760497 0 1 1 5.626002,0 z"
       style="fill:&fill_color;;fill-opacity:1;stroke-width:4.72412586;stroke-miterlimit:4;stroke-dasharray:none" />
    <path
       d="m 44.3446,48.325319 a 1.962588,1.7934421 0 0 1 -3.925176,0 1.962588,1.7934421 0 1 1 3.925176,0 z"
       style="fill:&fill_color;;fill-opacity:1;stroke-width:4.72412586;stroke-miterlimit:4;stroke-dasharray:none" />
  </g>
</svg>
